HIERARCHY
ROOT joint_0
{
	OFFSET 0.000000 0.000000 0.000000
	CHANNELS 6 Xposition Yposition Zposition Zrotation Yrotation Xrotation 
	JOINT joint_1
	{
		OFFSET 8.185791 -2.713684 100.414917
		CHANNELS 3 Zrotation Yrotation Xrotation
		JOINT joint_2
		{
			OFFSET -4.376465 -1.111145 91.934082
			CHANNELS 3 Zrotation Yrotation Xrotation
			JOINT joint_3
			{
				OFFSET -6.985840 -1.054016 91.669922
				CHANNELS 3 Zrotation Yrotation Xrotation
				JOINT joint_4
				{
					OFFSET 0.150391 -4.451904 123.526001
					CHANNELS 3 Zrotation Yrotation Xrotation
					JOINT joint_5
					{
						OFFSET 19.754150 -8.123901 80.916992
						CHANNELS 3 Zrotation Yrotation Xrotation
						End Site
						{
							OFFSET 0.000000 0.000000 0.000000
						}
					}
				}
				JOINT joint_6
				{
					OFFSET -6.477539 -28.517334 68.237061
					CHANNELS 3 Zrotation Yrotation Xrotation
					JOINT joint_7
					{
						OFFSET -20.564453 -115.426208 -21.139038
						CHANNELS 3 Zrotation Yrotation Xrotation
						JOINT joint_8
						{
							OFFSET 18.981934 -19.826172 -267.898926
							CHANNELS 3 Zrotation Yrotation Xrotation
							JOINT joint_9
							{
								OFFSET 11.562744 -19.325867 -235.478027
								CHANNELS 3 Zrotation Yrotation Xrotation
								End Site
								{
									OFFSET 0.000000 0.000000 0.000000
								}
							}
						}
					}
				}
				JOINT joint_10
				{
					OFFSET 7.033936 23.504700 70.088989
					CHANNELS 3 Zrotation Yrotation Xrotation
					JOINT joint_11
					{
						OFFSET 36.629639 112.486816 -14.036987
						CHANNELS 3 Zrotation Yrotation Xrotation
						JOINT joint_12
						{
							OFFSET 41.355225 -7.048523 -266.019897
							CHANNELS 3 Zrotation Yrotation Xrotation
							JOINT joint_13
							{
								OFFSET 5.858887 29.785156 -234.603027
								CHANNELS 3 Zrotation Yrotation Xrotation
								End Site
								{
									OFFSET 0.000000 0.000000 0.000000
								}
							}
						}
					}
				}
			}
		}
	}
	JOINT joint_14
	{
		OFFSET -8.917725 -79.985535 -99.035034
		CHANNELS 3 Zrotation Yrotation Xrotation
		JOINT joint_15
		{
			OFFSET -32.739502 -31.478882 -502.570984
			CHANNELS 3 Zrotation Yrotation Xrotation
			JOINT joint_16
			{
				OFFSET 7.393066 -29.352966 -399.008011
				CHANNELS 3 Zrotation Yrotation Xrotation
				JOINT joint_17
				{
					OFFSET 178.013916 -26.060303 -71.875002
					CHANNELS 3 Zrotation Yrotation Xrotation
					End Site
					{
						OFFSET 0.000000 0.000000 0.000000
					}
				}
			}
		}
	}
	JOINT joint_18
	{
		OFFSET 1.900879 81.159851 -98.481018
		CHANNELS 3 Zrotation Yrotation Xrotation
		JOINT joint_19
		{
			OFFSET -15.120850 31.602051 -503.400024
			CHANNELS 3 Zrotation Yrotation Xrotation
			JOINT joint_20
			{
				OFFSET -16.653076 23.887695 -399.091988
				CHANNELS 3 Zrotation Yrotation Xrotation
				JOINT joint_21
				{
					OFFSET 179.618164 -1.217651 -72.592001
					CHANNELS 3 Zrotation Yrotation Xrotation
					End Site
					{
						OFFSET 0.000000 0.000000 0.000000
					}
				}
			}
		}
	}
}
MOTION
Frames: 7
Frame Time: 0.016667
-2872.013428 582.203369 1093.707031 0.382611 -0.581387 -0.011953 2.024820 2.913444 -1.370293 2.058820 -0.664679 0.262064 2.043044 0.679697 -0.152228 0.175652 -1.415247 -1.279173 0.000000 0.000000 0.000000 0.270651 -0.399965 0.533065 0.171941 -0.620804 1.879088 0.026658 -0.230410 0.142421 0.000000 0.000000 0.000000 3.287090 4.537435 0.977930 -0.683632 3.166720 3.864603 -2.309027 -10.989252 -11.140598 0.000000 0.000000 0.000000 -0.647332 3.649514 -0.688654 -0.823736 2.435029 3.073986 -0.400311 -4.337711 -0.796152 0.000000 0.000000 0.000000 2.068918 2.872195 2.118766 2.083277 1.112923 -1.945797 1.721241 -3.161840 0.671554 0.000000 0.000000 0.000000 
-2869.624756 581.971802 1093.923950 -0.142916 -0.112913 -0.020517 2.003393 2.597636 -1.483396 2.048116 -0.627057 0.291749 2.026426 0.637965 -0.187264 0.161028 -1.706433 -1.336809 0.000000 0.000000 0.000000 0.477718 -0.290171 0.678214 0.141112 -0.415413 1.732153 0.061586 -0.441106 0.507243 0.000000 0.000000 0.000000 3.407269 4.597481 1.129168 -0.634958 3.232570 3.958586 -2.246265 -10.903837 -10.984865 0.000000 0.000000 0.000000 -0.473051 3.017364 -0.668974 -0.704896 2.798671 3.002073 -0.264264 -4.190129 -0.719845 0.000000 0.000000 0.000000 2.282488 2.508153 2.076770 2.320481 1.180170 -1.922199 1.968407 -2.871880 0.772855 0.000000 0.000000 0.000000 
-2866.743164 581.344604 1094.272949 -0.820103 0.325053 -0.079119 2.083038 2.150704 -1.566390 2.140219 -0.579953 0.354022 2.107084 0.585301 -0.258219 0.154541 -1.778805 -1.339015 0.000000 0.000000 0.000000 0.834491 -0.085259 0.917440 0.088009 -0.052843 1.509516 0.097834 -0.601908 1.009917 0.000000 0.000000 0.000000 3.695297 4.439512 1.007856 -0.361178 2.865991 4.411369 -2.017914 -9.778824 -10.351154 0.000000 0.000000 0.000000 -0.265958 2.309446 -0.513753 -0.552390 3.380389 2.773131 -0.083906 -3.932178 -0.609557 0.000000 0.000000 0.000000 2.578077 2.177245 2.064504 2.640486 1.303011 -1.837682 2.308829 -2.367070 0.912953 0.000000 0.000000 0.000000 
-2863.837402 580.766907 1094.801025 -1.406478 0.756075 -0.093066 2.223528 1.777445 -1.703013 2.296077 -0.537170 0.444215 2.248228 0.526493 -0.341930 0.147739 -1.816227 -1.325735 0.000000 0.000000 0.000000 1.123868 0.184046 1.037000 0.053269 0.296429 1.514781 0.128900 -0.778810 1.386353 0.000000 0.000000 0.000000 3.959192 4.274081 1.011279 -0.255044 2.562732 4.758051 -1.931148 -9.376848 -9.883462 0.000000 0.000000 0.000000 -0.093729 1.483255 -0.403692 -0.465753 4.278817 2.560194 0.066598 -3.887209 -0.542500 0.000000 0.000000 0.000000 2.825886 1.611035 1.927938 2.949819 1.927627 -1.579753 2.605602 -2.081798 1.033715 0.000000 0.000000 0.000000 
-2861.330811 580.571594 1095.623047 -1.723571 1.232929 0.010532 2.397479 1.572205 -1.969838 2.490592 -0.486469 0.552992 2.425850 0.451682 -0.429813 0.132913 -1.941681 -1.316007 0.000000 0.000000 0.000000 1.163656 0.498460 0.868391 0.074647 0.488847 2.046443 0.142627 -0.941279 1.395055 0.000000 0.000000 0.000000 4.031172 4.225883 1.396071 -0.558144 2.657210 4.632385 -2.164584 -10.727655 -9.920975 0.000000 0.000000 0.000000 -0.009674 0.416066 -0.467018 -0.532692 5.668910 2.483394 0.125033 -4.314283 -0.581587 0.000000 0.000000 0.000000 2.934320 0.524439 1.527881 3.194888 3.478087 -1.008873 2.775957 -2.319103 1.099407 0.000000 0.000000 0.000000 
-2859.045898 580.592163 1096.720947 -1.860046 1.752419 0.184790 2.618383 1.449065 -2.306690 2.735502 -0.415953 0.664566 2.652045 0.359368 -0.533150 0.112538 -2.091342 -1.294015 0.000000 0.000000 0.000000 1.027455 0.865424 0.498056 0.136378 0.584230 2.990068 0.141743 -1.062597 1.137157 0.000000 0.000000 0.000000 3.986466 4.218379 1.968132 -1.129826 2.943473 4.255063 -2.602626 -13.156509 -10.175028 0.000000 0.000000 0.000000 0.013858 -0.881894 -0.619079 -0.711725 7.508609 2.463461 0.114624 -5.039882 -0.691946 0.000000 0.000000 0.000000 2.957276 -0.986255 0.937188 3.418202 5.772662 -0.161650 2.896624 -2.826654 1.141713 0.000000 0.000000 0.000000 
-2856.464111 580.643860 1097.723022 -1.881150 2.157310 0.355062 2.898458 1.552383 -2.532606 3.030715 -0.387920 0.746213 2.933383 0.308557 -0.618027 0.097705 -2.246571 -1.294901 0.000000 0.000000 0.000000 0.856236 1.284178 0.042838 0.193396 0.714526 3.914892 0.164998 -1.458074 0.914878 0.000000 0.000000 0.000000 4.033813 4.297156 2.786145 -2.049140 3.383979 3.902640 -3.382164 -17.199313 -11.033439 0.000000 0.000000 0.000000 0.016931 -2.013035 -0.772590 -0.901993 9.338815 2.443275 0.086157 -5.790346 -0.813005 0.000000 0.000000 0.000000 2.919904 -2.453495 0.380201 3.592573 8.243262 0.685712 2.979787 -3.346812 1.166993 0.000000 0.000000 0.000000 
